ply
format ascii 1.0
element vertex 540
property double x
property double y
property double z
end_header
0.19243179203174141 -0.029794939332901928 -0.48437017967629359
0.020702805176485824 -0.016922890706452205 -0.13504491745069283
-0.13235885237559369 0.049260465308516306 -0.15071117426649533
0.17752923736940254 0.02656626521090516 -0.58559608174420474
0.024347203763821046 0.053655926122715317 -0.15185502542543222
0.098329679647127591 0.04478601694728794 -0.60697313695748112
0.053875117892227632 0.021065680368657379 -0.20266802660849845
0.058162632478909099 0.021761167857326721 -0.17994484845769709
0.032206200535178711 -0.010906214635656013 -0.11677832259304699
0.15992755035650189 -0.047784506991876141 -0.61329586928095059
0.17938855702932271 -0.012191268230985059 -0.59014062742866469
0.17171565058622221 0.055174038115276686 -0.54925947411345832
0.16469353459550096 -0.039975844509769036 -0.60161478839557125
0.17984931053918776 0.057584530663623151 -0.58346528085775695
0.074249901117778225 0.06843873675012814 -0.10915847461008692
0.051858838246492796 0.059216510621243876 -0.21640288620261491
0.18148369845099901 -0.077990754303730522 -0.57270228826865188
0.18544253958175533 -0.097785215767270409 -0.56804079629162652
0.030751550019619617 0.0043199885034874361 -0.23695618631487406
0.1701457069740045 -0.015712987063997642 -0.49538640654415178
0.18547281127920442 -0.057399235449816864 -0.56159024494026455
-0.15268578660594673 -0.15788880335074104 -0.091880623286850205
-0.086920990614085369 -0.0031725852567776399 -0.15246563187972284
-0.1358507820521685 0.021465290602119165 -0.16075021590875194
-0.067242694143933857 0.12678007745238418 -0.16202527633226158
0.17132762510348939 -0.045137927344350022 -0.54943130748080482
-0.13573515181975901 -0.21570393706177013 -0.16653226847448346
-0.11798068260757469 -0.19889080238689244 -0.18581036861283223
0.11308150061774291 -0.17976414099351304 -0.3546038517410422
0.093782795298190905 -0.15435678429409774 -0.31117155835812838
0.17626599718912775 -0.14731439267529856 -0.57465775475509673
0.1754940761392822 -0.10500798497510767 -0.57318454315443057
-0.21956436865947598 -0.150628524032734 0.13901054016385117
-0.01253734950968829 -0.16653230759582394 -0.15563907664776822
0.16708166925011098 -0.083971074192282016 -0.55391676854097671
0.16645840720122701 -0.041176137418313476 -0.55779027612794996
-0.17792926873797074 -0.14058914398199016 0.60497615583823061
-0.0059554697410086855 -0.14022353704986026 -0.14209952525982605
0.040564343977270101 -0.13470052473622196 -0.22067734456269936
0.056043090275612238 -0.12005895262902226 -0.19578927326206064
0.16332543753787582 0.020948814018682656 -0.56095768207903207
0.020198188374848089 -0.058785428078956516 -0.15411275058887344
0.021813788799564034 -0.09749006680040094 -0.14769072710862599
0.057046053587228959 -0.037437837283956971 -0.19306404561012125
0.028520397699131249 -0.060985173750622949 -0.13654665777739947
0.06032076562393985 0.035446022553813503 -0.16266273373065759
-0.037940572040413741 -0.0093014971222631932 -0.19817602725193809
-0.13838133132369845 -0.075410700616232396 -0.14751226059860359
-0.11128676244958906 -0.020313065692928314 -0.1796772292926361
-0.10866841473204808 -0.070213052312143545 -0.17459336346964346
-0.017376737196902744 -0.044232022811802628 -0.14059965962351884
0.17072783799572055 -0.044530419175096682 -0.57829810015028793
0.18418948130202867 -0.060904087758234367 -0.56613132890803619
-0.011968299792854653 0.0034718761404063602 -0.15468422594346096
-0.11318146468391169 0.033359224853469614 -0.17708782976161921
-0.15543095943085361 0.026054886039726454 -0.076778614925387387
-0.13495021117469097 0.076619467056961682 -0.15001944048698765
0.058238709511079657 0.027851661904584404 -0.18356885682496746
0.1718040033537766 0.025003345913376922 -0.5466348946894487
0.070462702587861387 0.024696363150478965 -0.2244198963375531
-0.066754138179196135 0.079099660928565435 -0.1599636747528444
0.10649428635278511 0.048764711279455725 -0.38588192143455113
0.1544296375462916 0.04038204200509217 -0.51143748794870292
0.14993808090389821 0.046880249112756719 -0.56650538085704494
0.072056089858002562 0.038190909866521593 -0.59927722541257322
0.089781947415520244 0.052001656812453952 -0.43643868962824223
0.17019712731919306 -0.14851072815845959 -0.55175258256480997
0.18126724841222641 -0.078262076336090294 -0.56921882084554121
0.15349964139979344 -0.056433169269400084 -0.51883166027080907
0.1705516879628291 -0.17795363106541495 -0.55042969041211598
-0.18789457074307656 -0.090307224326325916 0.58700018055616821
0.18444198096718181 -0.018643524718738324 -0.56766738835260089
0.15793632370871366 -0.021691808362167816 -0.51511776255481301
-0.1034372801539241 0.0012785700741664459 -0.10355166871513848
0.18449530932292899 -0.16682710329994199 -0.56794592342513239
0.096102631095390634 -0.15942998213785245 -0.30968512471119691
0.18375712062211647 -0.12882774296769342 -0.5644200631513796
0.16940576954787237 -0.0025724702960441214 -0.55358035625057223
-0.18558468656848442 0.04323440820197099 0.59196335876976103
-0.18275876360606491 0.093140833094296313 0.58344620909430112
0.17342159332779741 0.046383651352348246 -0.5481664462102398
0.019204414184082762 -0.14581093238701606 -0.20149416332003217
0.071395833028707154 -0.02757515237345521 -0.22922260840057448
-0.02173606903078824 -0.2009132355587552 -0.13563550016868822
0.17914641121228611 -0.17455149424823008 -0.56783651293852211
-0.14395443721966852 -0.13309789561823734 -0.15818934895086847
-0.079358135248140935 -0.020929022852866134 -0.11210115402311678
0.15149047428147394 0.013565047094428271 -0.51860377113204381
0.22181164363867678 0.048834996964814394 -0.1751040251562293
-0.014080181019844115 0.067552651172823039 -0.13754247542568568
0.091394289085475755 0.057809021439869608 -0.37137157690712824
0.057695556490725018 -0.11026885431868191 -0.16281881997414047
-0.1009456661947384 -0.086608237573353772 -0.16099151350467142
-0.1808735224946906 -0.011209607641395775 0.59433619123471249
0.046128152773650351 -0.089421580358540989 -0.2037819154936647
0.070589269857980211 -0.074517962148928418 -0.23300341319579865
0.050480744270279085 -0.070506051780748008 -0.20608636078872178
-0.18121341056053225 0.028958121831634095 0.57323927179939427
0.17441254880430571 -0.021137629590121245 -0.54653423213286312
0.11934904746390909 -0.15341687262226825 -0.39266027801108111
0.082066900011071253 -0.00251966590029001 -0.08217887619910029
0.054811689354322291 -0.16349230108765408 -0.19028085096222402
-0.17667694432707376 0.092541008210700618 0.6088711755571482
-0.13737267803555148 0.02248275711616473 -0.15888775275022987
0.020327254247278909 -0.12174846794302727 -0.15283813913834909
0.15642535901596533 -0.13642571477081777 -0.5138666037965216
0.023493187080680433 -0.092073061429092093 -0.12153075953699759
0.1543767840515507 -0.098293349154747175 -0.51722576076469307
0.20081658148244122 -0.023253805382354525 -0.54626923565044883
-0.17869065765993139 -0.059577924792913878 0.60166974889426128
-0.14040481412880451 -0.035509994965786697 -0.15423981360983724
-6.8943356249597524e-05 0.0065888042651202515 -0.10410816516110323
0.050418388233853847 -0.0039860619702514278 -0.20505536350004536
-0.13059546621707507 0.023492389181902461 -0.14228435213749033
-0.18249659723768671 0.19490240879926871 0.59077391642771537
0.1296279566446483 0.057423483747881018 -0.42399743643998716
-0.18150121233822275 0.24521433084196589 0.59420706226656872
0.14185622438487153 -0.11139855626426017 -0.47204598498567713
0.15168222495225483 -0.079263340631378423 -0.58810626330112625
0.14705290906491536 -0.15071530279499132 -0.47036259448192896
0.13000918753085153 0.0018073159588836156 -0.43400105398211591
0.16704259643571423 0.017725681244408414 -0.55165301112884579
0.050756648512371105 -0.10124411165227185 -0.19915411109056838
0.10694927425420835 -0.0090759206270479079 -0.35358714581119655
0.068634409753278849 -0.14248308965489545 -0.23551744992449231
0.243976863292341 -0.11837937140251284 -0.13468034235201468
0.18369548617700843 -0.13062564077656824 -0.25462435124056881
0.10735737490495557 -0.083541346426709212 -0.35513089298235467
-0.16874113155846007 -0.0053445310551737219 -0.063760813129043789
-0.18225562578077575 0.27273401503264205 0.59322126310644807
0.083675655810815791 -0.077794401789132592 -0.27431903207703395
0.11533455407341023 -0.12413043167486568 -0.39493947738667085
0.12657758065050306 -0.11070314139068206 -0.43522297298880008
0.08792437175681532 -0.073601026985815152 -0.2575131976390867
0.079303733794627476 -0.085035714287706871 -0.27643623747265123
0.083805510563386518 -0.025922964170895114 -0.27205028926026303
0.074186421057907806 0.016064464117622152 -0.28032074552155445
0.081542486915720538 -0.12308147944121821 -0.27318735769334218
0.16625587798571095 -0.11044658111441559 -0.55469013320964289
-0.15394052920205559 -0.018464990122938996 -0.075379091433900328
0.06444385471960587 -0.1007183166299941 -0.2413234632335671
0.061122080845483311 -0.039346342238265261 -0.16038615540935344
0.15858634911977512 -0.18633330981558821 -0.58235693656381782
0.16018436900241065 -0.16892353584223191 -0.50950257366155083
0.12070305647182138 -0.15872545185231918 -0.39206360369276488
0.063504436519213892 -0.019385934868889208 -0.1832158410185199
-0.13462708495346207 -0.23539135151457258 -0.17061589941519409
0.032301535246519748 -0.12866239297663837 -0.12552165711597799
0.17137656685926733 -0.11382836886663895 -0.54733381769691325
0.17384234033904192 -0.068273672403537183 -0.54773813141825922
0.18465433994712913 -0.13341679295328174 -0.5680828088430363
0.056044869169728985 -0.088864572710425555 -0.16749836912682334
0.023375405540931142 -0.025592497076070201 -0.23523049156272799
0.070347386399352743 -0.15290984493867033 -0.2297671680905172
0.077390493760934265 -0.038038771366531283 -0.27758713931559981
0.14416813721146923 -0.039731105090544755 -0.47658708643165537
0.11181412577519452 0.033875279042494461 -0.34615711815694494
-0.1441308800257311 -0.21163668480692618 -0.1765983833710271
-0.11500669359907074 -0.17021146428999437 -0.23305799727079435
0.060454118345018029 -0.05901743385134909 -0.15602336247070903
0.11975459598253722 -0.014350248615880192 -0.39432020330992984
0.13929366422489811 -0.093455000750879744 -0.5281738035851643
-0.13401444369152829 0.056963342148273935 -0.011872887176135032
0.093503615504771542 -0.088586805236997232 -0.31449361323549391
0.11544705043969189 0.0036354938753928394 -0.33705245532912342
0.13488481710275063 -0.16083026264370995 -0.43028004240619577
0.095224569049441057 -0.029229372812046784 -0.31401702708136114
0.13118703918787541 -0.040780798028911804 -0.43585281966629341
0.063401727214619397 -0.0034320444465381229 -0.23725525811116849
0.095218985996481001 0.011916008871832326 -0.30974120343373152
0.10987994633635297 -0.037734828286242021 -0.29373030173983949
0.094713647146188337 0.037431540696815736 -0.30264706692738491
0.082599396117906509 -0.052103105173445713 -0.32806487993252348
0.11560035495746068 -0.068517616896818831 -0.39605196698766265
0.11362195090673294 -0.039175289122484254 -0.39997165833856696
0.085538527467273959 -0.17187259259775198 -0.3242558043891734
0.14634730096121293 -0.13863233144203652 -0.41639222812813886
0.11436381653271535 -0.10482236589887238 -0.39921841060221813
0.12710240815583124 -0.074063635052750917 -0.43796671116396058
-0.17402089599717915 -0.027744718877853753 0.57640453323432561
0.11955676709551964 -0.088895426623534723 -0.39505723885930477
0.13203805702155322 -0.018232332640529755 -0.4311684684179502
-0.10731988642771405 -0.0068911537194503731 0.040316366700559644
0.08290350254646027 -0.079958162321351001 -0.26975587037520504
0.13611438652441196 -0.095044302539455991 -0.47766065910752764
0.11308431192340325 -0.069139439826646776 -0.50237972554039723
0.095992673258661343 -0.014639516186243508 -0.52079378511864916
0.14023787487089329 0.013148495018043195 -0.47596017962532522
0.18511631153609701 -0.1492907767328196 -0.56312972948251239
-0.34708727900513303 -0.089999562731325478 0.024251981456697654
0.14428490038703479 -0.13479142636389196 -0.46947582286544609
-0.17596964476648186 -0.064818976314400756 0.61319980148462649
-0.18418872733639496 0.098283079319512467 0.56623924871568254
-0.13933649406636467 -0.14369997715066204 0.396296369477736
-0.29259864513254835 -0.1386401548602923 -0.032120308077855222
-0.29588523400095446 -0.094533847987145217 -0.017864557005587499
-0.26370168765555202 -0.062546802493647205 0.038466163108991008
0.11044294224836727 -0.15092476907111502 -0.35129374485923959
0.10968159975964874 -0.047274938806267708 -0.35455765308851811
-0.088119993536867947 0.0057292007096964217 0.36295403992254038
-0.26584941679814106 -0.11924092496860268 0.044257578572943615
-0.098589065140870388 -0.02533216668011579 0.30063407907190248
-0.33768910820223891 -0.11000334927389104 0.045315180881230696
-0.10433813014047057 -0.14626711300777143 -0.16806060963119301
-0.12241311906171008 0.078706380221101491 0.41137811820402626
-0.082383653991843928 -0.10741187625037557 -0.14987662793586057
-0.16885438933170033 -0.16588361170410351 0.030908850627446343
-0.26574910118355927 -0.10183216854148187 0.012915723580942028
-0.13846384544282148 -0.018402418874110683 0.41836623312844889
-0.1255999717739886 -0.030741836326331935 0.37848684208932243
-0.14522425612791198 0.044068185681913535 0.40690207491224012
-0.11306610940128652 -0.087740361466950245 0.38557448894052326
-0.19334607062813755 -0.001441443441604394 0.013030049750001603
-0.12907097094527717 -0.071910163781171571 0.42456205167885097
-0.16594615433566787 0.013924781482720859 0.49511086738671206
-0.19768718385023823 -0.17987605018676875 0.12011244057584539
-0.20478285721234035 -0.19100473966766407 -0.10094146352132528
-0.30758013607681561 0.0048693474645418056 0.33853635882233052
-0.17337064608918537 0.062815289787608697 0.53453576571719896
-0.16758304251241379 -0.0079791523705591422 0.54179005128857616
-0.10339858619887314 -0.060986141105318706 0.3443189436759766
-0.12711032895172256 0.05039594707536469 0.3731720256191644
-0.30548211625067023 -0.04881455695030755 0.34809925673968861
-0.14077406792418631 -0.21304898262615443 -0.0758106420628233
-0.15327353815216638 0.080364243819543588 0.044865863847043295
-0.15837438675783078 -0.07865021824076078 0.54708096003271001
-0.16312347976245462 -0.040382444158298059 0.54681177456000762
-0.145687360413157 -0.048569444636176663 0.46324375617855174
-0.13982482923362063 -0.089724034209814937 0.46603169993878385
-0.153283081206608 -0.047550707260792469 0.50699166405099538
-0.15299331396089333 0.027499054793015947 0.45160633130413946
0.16638582635300644 -0.20097158607924828 -0.15160911661082974
-0.2060961104465279 0.069127954222717947 0.10338201310413987
-0.32035793311850774 -0.16686856156478849 -0.01454477231108685
-0.15552450613487084 0.063320143121829958 0.49665241360344009
-0.15392022525716428 -0.11614244630508348 0.048171339537254762
-0.19657318222039213 -0.013556228101711101 0.031020235316110287
-0.16485487802329798 0.040994012180732599 0.49244391465828363
-0.14657450862606702 -0.083627325008495582 0.50886290430007908
-0.18634374265687645 0.066792828957658631 0.56758667571273236
-0.30676939471054354 -0.15773200331609724 0.045760087773392827
-0.11950642205869212 0.061840560546726195 -0.10033204316620507
-0.21075877090741435 -0.13277903056903878 0.044706150952270776
-0.17840703483007722 0.064918584535063578 -0.10818040411870011
-0.19835800165454531 -0.050051475741539564 0.11559862089904624
-0.27375338478872741 -0.099177760208390697 0.03935205747272548
-0.079405856858854595 -0.19678738453470354 -0.1317665652507376
-0.078153874659090641 0.039016615294178922 0.15500093366084389
-0.1864338268182513 -0.011291818568592444 0.1139474303038904
-0.16917755839219012 -0.091941441583188274 0.1226126795007917
-0.17297286259762104 -0.15199080873116061 0.12311127277395652
-0.15256866025583984 0.018444862121535548 -0.093386654420656343
-0.18473685987306235 -0.16147795412738888 0.020734539044148591
-0.15334153770794917 -0.20585231608514581 -0.0099603165416859343
-0.17456194435221981 -0.11003771079083442 0.11944408642793412
-0.29087745094113199 -0.13619184283231486 0.0079182125095518009
-0.16682115087016827 0.064301408093555515 0.014145021127540264
-0.20338442807097551 0.048420032223350118 0.11233277189524705
-0.20372316076811445 -0.016744056163935241 0.084482423898672832
-0.15008554251484968 -0.20090160169353902 0.13887442369131789
-0.29272546704353636 -0.17873870154939162 -0.015344733345046543
-0.19161251248931252 -0.18286949389160598 0.089532686421236296
0.17164910028913685 0.1430665587087547 -0.58590863997035314
-0.29793306619023596 -0.17574696132889472 0.043349033435484387
-0.16818413544424757 0.08173301079601801 0.57027710159633827
-0.091759149167444959 -0.01780551792097787 0.25563531382115512
-0.072454320834044905 -0.017525274290416084 0.21459364282312243
-0.17326862187248976 -0.19160931859074337 0.13548975096218427
-0.064048321957221252 -0.078846775724278673 0.2211843340732586
0.17627031661098597 0.11245544847797503 -0.58238861649527607
-0.10113279888980785 -0.013261293275116078 0.13793925495798876
-0.067897393983712723 0.041074958527717982 0.20442969113997017
-0.063999228558672128 -0.082323091874698079 0.16813841240815225
-0.072108361177904964 -0.025466467657039579 0.16422205945575866
0.026039084405459129 -0.15735704063580222 -0.027134177129077564
-0.072759751199894751 -0.10606400050504959 0.26305546312204908
-0.091627619746917868 0.036988026617093543 0.24944377685606664
-0.18841156022369926 -0.22988055162346169 0.11366524191788223
-0.094309901580812067 -0.11945582721256842 0.34481804948968908
-0.080827619060578254 -0.063721940326596033 0.26150460231564643
-0.056526323851869863 -0.12783753036741938 0.22173302897903174
-0.06500860876529288 -0.10446275533349338 0.20500435732022698
-0.071853011845385936 -0.020527077496991033 0.19501910835048547
-0.19289378297798435 -0.070736389631321409 0.078668537135898151
-0.17311143645494681 0.002826796470089672 0.56826588322217331
-0.11690617600887356 -0.11895779782206617 0.42633615912076323
-0.073045033912584656 0.055882776433670553 0.19434409593017044
-0.081552055699606371 -0.1271075418147003 0.30360406678494012
-0.051708199773660458 -0.16342575974564894 0.21982048932051734
-0.16807004309428836 -0.096796813279344363 0.60109287484834195
-0.08913231395601029 -0.07147248947873594 0.30430983193024896
-0.1439181617025897 -0.097102126407211123 0.12784541254819309
-0.14906652459123446 -0.12707796199445839 0.54414190290991449
-0.12286592854114266 -0.13768479549681314 0.468218939164873
-0.13844670963578262 -0.12245654684650442 0.50651307433524762
-0.15197501026526294 -0.15664830909865757 0.058826346374531012
-0.16480583573763838 0.065515449502669729 0.070299866035499328
-0.12260854777441867 0.069631768279520695 0.45088860944033177
-0.15800534808870001 -0.12466855065688578 0.56692019742750377
-0.086231929693561582 -0.16853276086167135 0.14953732420512089
-0.094245997435651999 0.013900135007755264 0.19582223187830458
-0.053741455626447401 -0.13646734512346959 0.1712719925896754
-0.10940716128714038 0.020570880906399323 0.14862269824699761
-0.10285875792844816 -0.083390903741476827 0.33964282249863537
-0.10728934632478251 -0.15377304152618362 0.27304710032498136
-0.085678447246840997 -0.089178740224627337 0.13131041644695027
-0.18353809207686031 0.030811503409814422 0.42310580344033533
-0.087072754831888102 0.011516131300238845 0.31712608222858507
-0.13129770392597237 0.050242582115182288 0.13480615605977261
-0.15897381090919416 -0.13769102120694238 0.60799065869218416
-0.25436145617741635 -0.17418035174115726 0.018716282807590284
-0.012892627829978258 0.0304125766152381 0.13822835285560395
-0.037796433272441532 0.10140267395219478 0.4460572437000952
-0.12954181756092911 -0.12215646047346361 0.14449649435380824
0.14584507120821749 0.19665971548870326 -0.57205863220292696
-0.083207222074307571 -0.15208194368180003 0.56531015417122565
-0.17034261948230531 0.059085116803537209 0.5684473115650488
-0.14726053376650305 -0.17352645153421725 0.42631792106982758
-0.051811703251344723 -0.18512121170916837 0.17676547764478651
-0.10773396446426499 0.056745754855769381 0.45123119496660397
-0.14158112440676529 -0.16798783600984618 0.57679929289241239
-0.15217091325040957 -0.15886350403836519 0.56444338296594732
-0.10260068721186495 0.053829927873839785 0.41055417098901537
-0.065820431277483771 -0.19939006434596598 0.13362332821246733
-0.060223344737136038 0.014404593015027304 0.14884503890464279
-0.065042762313767363 0.01374824462128532 0.062501003896279578
-0.17095715071283782 0.019728334546775823 0.59020903280956527
-0.18998815657050772 0.0021346933163873716 0.09799590233830123
-0.092078112354735786 -0.18074358711775421 0.38405471684795883
-0.03119726347775589 0.080499199723336343 0.23099657831713694
-0.15524599732047681 -0.17181566758070047 0.12361269725661943
-0.1665815943829817 -0.070832356193202189 0.56764621096139811
-0.21052555108711229 0.021467403389678587 0.08962536548143421
-0.089040446680327665 -0.12389505381010429 0.14505015491263382
-0.099226965814472878 0.20017978396786057 0.49432618974258269
-0.016067816093107923 -0.16464741169223232 0.46244659303054786
-0.029781611784989021 0.065119818268797841 0.27087380739016237
-0.052963538613214074 -0.0012530826214337044 0.26507606529501571
-0.15080293065287503 -0.093241466872974632 0.58666023962897751
-0.14845336174322896 -0.17760634909437309 0.56619913697517921
-0.04990390910557458 0.0070360176567278113 0.33392272695429687
0.0031208128179523388 -0.17335424824192394 0.39444601599671425
-0.17769880772964197 -0.019243607518119547 0.60674065591343473
-0.16844681499817732 -0.2231899514880985 -0.082779025714439847
-0.18869620619527361 -0.10828223798205491 0.079403148052254666
-0.069581527891883321 -0.18291237966759938 0.25380896138489867
0.0047597696995571896 -0.15917272343927938 0.35617128275701154
0.087784167562370591 -0.010575930006600877 0.12489743912344775
0.10637317484855806 -0.10705131893684189 0.13503708191184979
0.15110363277671945 0.068800362852004734 -0.041582775976495567
0.081346737235395053 0.022845763191424735 0.12875681833796274
0.15056872914419031 0.097696228570848753 -0.046738969157791022
0.08114280301946715 0.090786502348874101 0.077507362841988531
0.048051325221755627 0.015084595248251367 0.14903904106340407
0.058063139507043331 0.093641745524451148 0.095054787884364209
0.17942012745925687 -0.13608942282836131 -0.097610493896658698
0.10776857700083248 -0.15598445234703981 0.13041529281024397
0.097151244474836557 -0.062360473713651096 0.11746309423502599
-0.14310192324635651 -0.20215792599595525 0.5420373880211985
-0.045133620694036189 -0.072107938908625824 0.18487228297619335
-0.026677633719211401 -0.15939346839876287 0.21780754747761094
-0.038134917485813373 -0.13604922688470827 0.18503306446336179
-0.11648304249021854 0.027438842014396597 0.39000223372410492
-0.051982357956330896 -0.032990546352506929 0.19425537344797467
0.099817981029128033 -0.11205327794778044 0.11787110141655432
-0.092994897769945434 -0.19086096448743145 0.37776654923063718
0.10859859463119864 -0.00093528584424158745 0.1090750333351708
0.20024973925731937 -0.070148597172525584 -0.60521552205000828
-0.15976471520782717 -0.21966167179715632 0.27578718260055579
-0.14991085385211905 -0.21155845332523343 0.56080024839947984
-0.024847241399916471 0.016047326848305694 0.013059548971591964
0.1820685211958728 0.071210713331363584 -0.60431451456545149
-0.11708924087763339 0.024991881593684737 0.37281127932260522
0.18832607664302217 -0.009853580730990838 -0.61503746243671042
-0.083514395060071647 -0.19996632308448137 0.34754067895964263
-0.15857257115963627 -0.071110842776589966 0.52557595640021093
-0.21001286459832952 0.028590615596229763 0.45068744311137332
-0.16443664916786399 -0.11561737218028906 0.55160478152729175
-0.22397205668658723 0.019728913530315476 0.46361296432392701
0.19395363817842262 -0.096894002129391588 -0.62354683400533895
-0.17569540566940714 -0.033944685157454357 0.55961497109639213
0.15496134080679944 0.25798508520516683 -0.58882490067035675
-0.14482852006381522 -0.15789545472724875 0.54298241993999774
-0.14562091792096521 -0.13133000452170576 0.54758141632469315
-0.11873041279864233 0.0030441125482365086 0.47241305483522644
0.10830592341418808 0.10054638224338801 -0.42102572839402735
-0.14190587191876997 -0.070039581626271163 0.51428193194858063
0.20839803269942048 -0.11090264768460339 -0.58975182669330362
-0.24214964008064138 0.016797089537503352 0.14044778444590061
0.10063395210310955 -0.1017362239162066 0.069774094461339461
-0.30165324534255705 -0.22122414770961554 0.19890531165105568
0.18224910656742357 0.031053088605077019 -0.60896650123565477
-0.16032161584879692 -0.22299005588693169 0.51457745459100424
-0.13049901151543558 -0.18941729675666283 0.50333510420720007
0.18924909309210539 0.022451409601476555 -0.59912568943476419
0.083486479245067205 0.065302102596170697 0.16043691763966036
-0.11271237287018418 -0.18157661761255145 0.41977965471721457
-0.14232575258255317 -0.20267066852909299 0.48477643013623162
-0.12030302251407293 -0.18411905054131877 0.46150149010600078
0.11403410089443175 -0.17734132173190265 0.11329815024952331
0.10199614462269796 -0.21469222100995189 0.13177222794911436
-0.20054792069884514 -0.18094976443586935 0.30621069750736291
0.093152979540444172 -0.024374046790701067 0.10879508985446019
-0.10135607679973785 -0.12690544039565693 0.3855896567001405
-0.088303299761094037 -0.051305841986194395 0.42537848397772432
-0.084630324179385846 -0.086013013915584954 0.30730468292569701
-0.1757858908284039 0.0094733110865903285 0.55204206395945965
0.04471769054473352 0.070724399153988704 0.15266242818718842
-0.088314466063902156 -0.16278509201200911 0.34112444212501192
0.14793405594567918 0.31524245852902305 -0.58876509506117358
0.051072377394735004 -0.0363236843886591 0.14457266927671725
-0.13126381855499772 -0.13549964625571551 0.50971640082340064
-0.064887576821929319 -0.14177130992765247 0.26406038457698577
0.11440190278104932 0.024535138794194347 0.025650129270563267
0.073202432395955364 0.062869355328637022 -0.25889329916901982
0.1795901722614601 0.1251985321451364 -0.59938478323264111
0.090628918698513 0.069886849665655101 -0.29949135162207313
0.10962477101706403 -0.013558037541392216 0.024660504625305141
0.13343672718516389 -0.051944981955983155 0.047535814177569365
0.097263563036622563 -0.1176845021099215 -0.2261049491633782
0.14294606737577947 0.072596754343662667 -0.46263659860205947
0.16214972548787318 0.094988879309229016 -0.54470643198270252
0.18150287139353208 0.073183009130866172 -0.58331417744149938
0.15853915146221834 0.08501650396292447 -0.54737113444185503
0.073475764492559284 0.03788981193523807 0.10961308834837435
0.11854180905477596 0.074537660058994357 -0.37853591403188247
0.17191193852694975 0.075578798640115824 -0.49048086344558378
0.19098216394942086 -0.1647567227184005 -0.13612630261189493
0.1170857265638512 -0.16561146746108218 0.014531757535695923
-0.12233397224736971 -0.0037224462670661538 0.43182084893346212
0.13680408534335903 -0.061676730462717988 -0.038499055051205808
0.15204514810573669 -0.1036345937003071 -0.11621929608090495
-0.14631986177554371 -0.01420404162082742 0.51451199206262477
0.11076234768087452 -0.14747088368107591 0.055964028813316032
-0.10235662626886506 -0.028231167872043349 0.38969500304638272
-0.082025119643105854 -0.17697005452852263 0.30112144425900061
0.04176365080509576 -0.088101072485921639 -0.03998078418791292
-0.18879682930434416 0.13770213375674309 0.59654177695666277
-0.16839712381003277 0.14813720747890097 0.57556544242811669
0.13936772429359853 0.0021600905284348917 -0.043957004644263567
0.15401705871520199 -0.17395514142859972 -0.11735167940627156
0.14476881726319024 -0.088611339565340896 -0.042132865085181138
0.15464206553740809 -0.045961462823789052 -0.11471480812812059
0.070657776189647997 0.068956685264736167 -0.21678765048393592
0.086423870344710108 0.027038590693299478 -0.26450920074566892
0.10223839096975958 0.099763472279640081 -0.54201873496206543
0.13755831558686518 -0.04491952280222164 -0.14651430472157947
0.19816612958216606 0.11328179664836172 -0.60276832611010667
0.17237688361752498 0.068151973937239596 -0.51008431714355573
0.14734533765971924 -0.12466394209050539 -0.59224320406866315
0.14346941884697637 0.00045885993756479337 -0.13828216542921942
0.035041863061400315 0.12312783517834006 -0.50852690683224033
0.17972767352720484 -0.12105084423779455 -0.61373801053984123
0.13861311051077649 -0.16073528936090706 -0.14935156741132627
0.20208428644811904 -0.11841017561229576 -0.61256335809187612
0.14353264221113474 -0.097768245394525666 -0.14407248136582579
0.05046399408240778 0.094750689597927221 -0.47792160743806483
0.037304678946321397 0.11511483152224118 -0.44588335615667984
0.15402262071344677 0.0072153815034074536 -0.11137189778367462
-0.096405559350354691 0.12464380945908562 -0.41084821010641609
0.0082633699906936864 0.11066296595637068 -0.39561485140772013
0.17210509465286525 -0.049979524545865517 -0.59724479364449179
0.1604835934500522 0.071291922081889156 -0.43340693891743975
0.070716565017115124 -0.0020686664567628552 -0.11878361453285601
0.13847400772869004 0.034788189307803218 -0.12753734013353987
0.19760312248629655 -0.12596029063185224 -0.6182849873905647
0.091076822628257642 -0.050652604313649055 -0.13905143477387324
0.15290326081261121 0.078324933309368322 -0.13326922773398497
0.15895938634586174 0.050004254036261381 -0.11915534659983383
0.057760764141523542 -0.089923462782349792 -0.13166811280676086
0.15121122500377193 -0.15122562150252397 -0.11486165747515928
0.052198031605812337 -0.18857150729690517 -0.17761620599309536
-0.30394780518554243 -0.11068528225975743 -0.062932176276420421
-0.30992797998751714 -0.071246552589098594 -0.047686908908364203
0.075260494974658462 -0.19367175364846065 -0.04153825729159305
-0.14357694062212573 -0.17026949789207821 -0.16498590907935248
-0.0013716892868428328 -0.11263526882816163 -0.24856678480834074
-0.016367775860430762 -0.09150677456853 -0.14841196597089359
0.13882779400209763 0.16870347890898682 -0.085516758137017812
0.18671242885378475 -0.17231563950956985 -0.57236022092592942
-0.059944074915430058 -0.18352003659752122 -0.099966219171986212
0.20021213097529592 -0.20322278543190289 -0.0914258452860119
0.00025169443597928328 -0.091220985754288275 -0.14169445473450948
0.14864911484872609 -0.092486889897082786 -0.53683865930926988
0.050354946200201312 -0.16579770589780096 -0.21504620883928
0.15365224213467596 -0.15863278677942008 -0.52520549451710463
0.14543073725241012 -0.10235391075763417 -0.47866955097780789
0.14129312322417556 -0.077231616518473822 -0.48487744437263769
0.22165717240688476 0.055048202700319418 -0.28570414522665061
0.13803864658096246 -0.00019843453309043778 -0.49041677382060461
0.14142601522211473 0.030166444489291042 -0.48316564903448617
0.18611359489596097 -0.11188341460108489 -0.21351150805474217
0.0068851684502540169 0.037327606792227332 -0.12982432355366735
0.12449488411740292 -0.093185494609019523 -0.45160159396259403
0.088684531220490789 -0.16253352598344745 -0.27047524683034618
-0.34378901938785733 -0.073879442173938312 0.00073980128900881829
-0.16853554686165165 0.06319416355899897 -0.128225970871436
0.1164088322408532 -0.20464585523277895 -0.17944645598530731
-0.167512529734821 0.032385282632753483 -0.063945018776315574
-0.12652999786207605 -0.04816347632540572 -0.10021059791943819
-0.16328506352597444 -0.1056386717476418 0.61393550561189791
-0.26897940051281488 -0.13898097890882233 0.015463895352289229
0.027474787515104373 -0.22042999520998316 -0.20233631761902363
-0.085529947170951776 -0.14926683093647533 0.16211295396912576
-0.16911182984682768 0.021132354899621456 0.60019558047041577
-0.17892184575879455 -0.057142665821494965 0.58701472180671643
-0.14798145436929533 -0.0075560560581359668 0.46189062659573782
-0.15158900235685496 -0.13982374367791403 0.61496039858068674
-0.18340325712339711 0.052557501056187242 0.59923448847571881
-0.11798881117660043 0.043796619028024716 0.33456467800497974
-0.069640697680416044 0.17253682072553597 -0.13244793608227962
-0.15295348033474229 -0.16019468540241233 0.6145974862114999
-0.015561869489088094 -0.17686625564783337 0.15893346527148833
-0.049079726661075483 0.071218519086954868 0.40334863080880484
-0.083870087875609359 0.072227222691969933 0.50007041520958595
-0.093785394298346078 -0.05082066901924058 0.13770181506922355
0.021992607205337047 0.098184092970658457 0.29413802269074713
-0.16969468019144038 -0.061176056835526044 0.6206517414782865
-0.042942733790226083 0.068659687092670091 0.37063735984694585
-0.18924488130299119 -0.067830702490224826 0.13770808557358646
-0.13188787575945887 -0.16567400157066697 0.58489912600641047
-0.27336670969039767 -0.18067701768753533 -0.036423255859991864
-0.17009972679645538 -0.025146345851607983 0.61490381051804199
0.085035137631225305 0.051374581483777389 0.14605760469240034
0.080487537445037255 0.078829801155811924 0.15606995730246198
0.11781176510276899 -0.16824554196079972 0.14894645557814198
0.059758127489563682 -0.15323109688134909 0.10104330646793999
-0.024324691680086608 -0.11786118618318953 0.18255770602360144
-0.14697411858042969 -0.10195760715878392 0.5503259682092021
-0.29677728274681386 -0.22240131323572387 0.20486769214085832
-0.13313144213497929 -0.0041087389278125054 0.54455770279874471
0.11153564269126579 -0.20015883493430739 0.20072634351994867
-0.13887832242211279 0.062763649684793754 0.10512987721289624
0.018039140220471428 -0.12714016192872868 0.030439762816741954
0.13305623454127988 -0.17394966775143667 0.018942252519334624
0.13640697078411468 -0.023042513400728132 -0.0092892711163850318
0.10644146344897694 0.11023161142095422 -0.57467327722356465
0.088928231504572727 0.10454460332630609 -0.38912841416495098
0.10937918048402885 0.088085763936253558 -0.071300657394913688
-0.10173565991140888 -0.18211290320138945 -0.27463156169976183
