ply
format ascii 1.0
element vertex 540
property double x
property double y
property double z
end_header
0.09287563462615045 -0.014380284411291393 -0.23377731588134806
0.0099920400314648227 -0.0081676951478551838 -0.065178327753661128
-0.063881920357237665 0.023775161729789759 -0.072739518805417833
0.08568303818872125 0.012821991184816547 -0.28263317174538871
0.011750979279785983 0.02589659503497756 -0.073291589236101129
0.047458017739120055 0.021615605729383775 -0.29295063305679098
0.026002386154435241 0.010167178782744863 -0.09781606974064358
0.028071720093503037 0.010502850145583172 -0.086848913174691955
0.015544059960260613 -0.0052637955244343518 -0.056362104758747714
0.07718772754096527 -0.023062802488666604 -0.29600224823385402
0.086580423654837368 -0.0058840161591573025 -0.28482655964702053
0.082877157953229752 0.02662929940390767 -0.2650956044950129
0.079487990954519389 -0.019294015242287473 -0.29036446983510561
0.086802802577691685 0.027792703968327861 -0.28160475807994739
0.035836109067180967 0.033031397990783841 -0.052684447290092661
0.025029245231595817 0.028580365781694858 -0.10444508767908393
0.087591626570505413 -0.037641601340678413 -0.27641008750792051
0.089502328947285492 -0.047195236689071884 -0.27416025643219305
0.014841984755506906 0.0020850072101022089 -0.114364970310915
0.082119437475898546 -0.0075837450248374483 -0.23909420791220964
0.089516939335112317 -0.027703272744964265 -0.27104695044402505
-0.073692549342788322 -0.07620374293009094 -0.044345433296203385
-0.041951707045815169 -0.0015312223932321361 -0.073586293460129307
-0.065567271729573676 0.010360047402030732 -0.077584780358712205
-0.032454137783843158 0.061189370150439862 -0.078200177870577661
0.082689880619378472 -0.021785452411751574 -0.26517853846800021
-0.065511463741176265 -0.10410774557806222 -0.080375440861398251
-0.056942414011285088 -0.095993023283491324 -0.089679858628501335
0.054577863789876876 -0.086761696191258106 -0.17114665629624351
0.045263501100156631 -0.074499042745501412 -0.1501844142019543
0.085073345620827273 -0.071100089880301406 -0.2773538774555232
0.084700784223208189 -0.05068124732615753 -0.27664284389445809
-0.10597095139650949 -0.072699628344327513 0.067092303205865539
-0.0060510494651013136 -0.080375459742994093 -0.075117930689463194
0.080640604663916329 -0.040527953949321127 -0.26734340965771314
0.080339792320398035 -0.019873326822984826 -0.26921292649571049
-0.08587611006543075 -0.067854203460937415 0.29198680641032793
-0.0028743588876508582 -0.067677746257651161 -0.068583176663470011
0.019578049709483503 -0.065012109419469083 -0.10650812013689327
0.027048740339639735 -0.057945474083264295 -0.094496095552689299
0.078827690070161646 0.010110774192288449 -0.27074164913929982
0.0097484908486593514 -0.028372307309295512 -0.07438126186842503
0.010528247214088932 -0.047052785447944674 -0.071281724624529086
0.027532812400132646 -0.018069066759013101 -0.093180786658029868
0.013765137289061317 -0.029433996612892747 -0.065903130471621343
0.02911332545058145 0.017107733628106771 -0.078507841483736768
-0.01831170758806511 -0.0044892917073755144 -0.095648042895516108
-0.066788620692053421 -0.03639635947567306 -0.071195589219340369
-0.053711648053926295 -0.0098039354490977813 -0.08671974896782815
-0.052447923887711398 -0.033887756922482887 -0.084266062600937414
-0.0083867404541343674 -0.021348224979201514 -0.067859278749537941
0.082400398264688215 -0.021492243549721811 -0.27911086046372074
0.088897550590630328 -0.029394861120140395 -0.27323866757633686
-0.0057764022613999762 0.0016756726966947453 -0.074657079786400682
-0.054626110630937863 0.016100557741474376 -0.085469996407688917
-0.075017484612474081 0.012575178199517409 -0.037056572157972485
-0.0651326185421328 0.036979760737555024 -0.07240565913968483
0.028108438052467682 0.013442377413159332 -0.088598011249635802
0.082919800695735818 0.012067660935668065 -0.26382887264650723
0.034008248591489758 0.011919498209424088 -0.10831443222046744
-0.032218340232948228 0.038176806077043893 -0.077205162686168533
0.051398598561314894 0.023535890091868943 -0.18624276147717139
0.074534204773358884 0.01949006314977391 -0.24684113141244807
0.072366391600612576 0.022626369799960674 -0.27341920069812792
0.034777283959071745 0.0184325310976589 -0.28923626413046444
0.043332524507242939 0.025098175447388078 -0.21064357321965999
0.082144255086032819 -0.071677491441920899 -0.26629888295106402
0.087487158725023079 -0.037772552706237146 -0.27472882037318658
0.074085349719867286 -0.027237008783849829 -0.25040986836438295
0.082315380888289658 -0.085887868344031504 -0.26566039984530393
-0.090685781784399025 -0.043586045123199649 0.28331084858278688
0.089019417494203723 -0.0089981451174945722 -0.27398003413656669
0.076226678243210305 -0.010469374351057648 -0.24861738592856564
-0.049923159457528656 0.00061709141612434587 -0.049978368163452906
0.089045155990069166 -0.080517740484736144 -0.27411446681712259
0.046383150923185075 -0.076947580299238982 -0.1494669991281205
0.088688875235532996 -0.062177659207193328 -0.27241273911885378
0.081762312713352422 -0.0012415818029829985 -0.26718104301009493
-0.089570935030839932 0.020866734425992149 0.2857062860595323
-0.088207026366017904 0.044953663279372433 0.2815955532488969
0.083700517300907287 0.022386690941987693 -0.26456806349410195
0.0092688538423834118 -0.070374457036917512 -0.097249514200472439
0.034458616386579641 -0.013308922343637519 -0.11063242201867191
-0.010490736401702698 -0.096969134155517875 -0.065463367684713739
0.086463553951593983 -0.084245854762778169 -0.27406166073829646
-0.069478434789100249 -0.064238613549417539 -0.076348798812236066
-0.038301556598834892 -0.010101222147557203 -0.054104707503339421
0.073115641600363115 0.0065470593207427544 -0.25029987953060573
0.10705558033265906 0.023569812904538814 -0.084512529298150812
-0.0067956845075443448 0.032603736015304675 -0.066383753735999848
0.044110708061271292 0.027901052610158142 -0.17923946206183261
0.027846289678064837 -0.053220362998317991 -0.078583175235851344
-0.048720602305929832 -0.041800759342046898 -0.077701240674952932
-0.08729713012281648 -0.0054102256836700349 0.28685151429192102
0.02226337663725611 -0.043158596286952886 -0.098353679124314267
0.034069335251916674 -0.03596548653710812 -0.11245719661047177
0.024364119416033017 -0.034029170725807419 -0.099465900847034439
-0.087461174325095134 0.013976401270798165 0.27666925822849076
0.084178793877741243 -0.010201904487545302 -0.26378028868474462
0.057602844146505239 -0.074045402044596378 -0.18951427998313489
0.039608919814413168 -0.0012160961921339111 -0.039662964208098894
0.026454414730360132 -0.078908225401241816 -0.091837500465647884
-0.08527168590457955 0.044664162692487505 0.29386670590331904
-0.06630180241080523 0.010851119314863366 -0.076685877708639549
0.0098107834391093374 -0.058760904867034849 -0.073766081049708332
0.075497423460229543 -0.065844758316109656 -0.24801352436043553
0.011338795094467367 -0.044438311995706657 -0.058655829680861249
0.074508695465284352 -0.04744048312334536 -0.24963479406817859
0.096922484854058452 -0.011223259470570891 -0.26365239029426524
-0.086243588217443962 -0.028754799383348371 0.29039099607144792
-0.067765238161002259 -0.017138609390878839 -0.074442587798953089
-3.3274948475675746e-05 0.0031800326291696723 -0.050246956633375008
0.024334023783733286 -0.0019238402929033659 -0.098968298416206024
-0.0630308364129777 0.011338409995131186 -0.068672381848215197
-0.088080493906990853 0.094068057654483825 0.28513221141624007
0.062563875810484379 0.02771497598821495 -0.20463890386017489
-0.087600079505301159 0.118350696399573 0.28678919124883989
0.068465749480945137 -0.053765604426598564 -0.22782914385082187
0.073208188497373913 -0.038255804750359106 -0.28384469039656612
0.070973886948850928 -0.072741511406017187 -0.2270166691567575
0.062747873787748834 0.00087228630404064336 -0.20946706826052119
0.08062174648879146 0.0085551554520873086 -0.26625082560976832
0.024497282347738795 -0.048864644571384279 -0.096120107081331022
0.051618194760288776 -0.0043804190521418785 -0.17065595147317036
0.033125837969515778 -0.068768300889752693 -0.11367057592885571
0.11775344278161719 -0.05713483790578433 -0.06500236855637298
0.088659127873395999 -0.063045399917962527 -0.12289236598097518
0.051815161210215316 -0.040320549348851223 -0.17140102845192648
-0.081441530609670021 -0.0025794943147780494 -0.030773636316095469
-0.087964190999082051 0.13163284747728418 0.28631340332604682
0.040385372677436596 -0.037546833401289711 -0.13239784302368995
0.055665281660554025 -0.059910540230896529 -0.1906143169687724
0.061091636720917095 -0.05342996811084167 -0.21005681750106678
0.042435980769086348 -0.035522935260699849 -0.1242866441289205
0.038275300181086554 -0.041041793806379255 -0.13341969493638964
0.040448046014450671 -0.012511507185703031 -0.13130285281086504
0.035805470934134852 0.0077533825575301822 -0.13529452105759923
0.039355816111939057 -0.059404271992348621 -0.13185164961424442
0.080242043246698785 -0.053306141386439611 -0.26771666780617942
-0.074298140621005246 -0.0089119768512610463 -0.036381103561678244
0.031103300767742027 -0.048610873893152162 -0.11647280088885219
0.029500073705382129 -0.018990191106227499 -0.07740906952856845
0.07654040770515648 -0.089932251934021837 -0.28106982474800146
0.077311678965367475 -0.08152956654923578 -0.24590726081617562
0.058256345548594948 -0.076607544504262576 -0.18922629999088078
0.030649898236800727 -0.0093564633201166491 -0.088427631050445682
-0.06497666430741865 -0.11360971555997908 -0.082346372021956812
0.015590072480978809 -0.062097854382883767 -0.060582003840870279
0.082713501958553259 -0.05493833365749054 -0.26416620213446618
0.083903587413562797 -0.032951731030444679 -0.26436134085380975
0.0891219108235176 -0.064392526746712669 -0.27418053344740578
0.027049598908373523 -0.042889761089482982 -0.080841721460105168
0.011281948795132089 -0.012352009938232293 -0.11353207781646613
0.03395259217381922 -0.073800689269280031 -0.11089524931067626
0.037351890486434308 -0.018359102691736559 -0.13397516832219392
0.069581575346845614 -0.019175893758105994 -0.2300208694188475
0.053966175660965808 0.01634962708599963 -0.16706990923767198
-0.069563593470081495 -0.10214471945662505 -0.085233769100019174
-0.055507042477196587 -0.082151174708033584 -0.11248354116898875
0.029177687053560324 -0.028484283002710747 -0.075303403107022826
0.057798578830683983 -0.0069260304296447439 -0.19031542938747631
0.067228950724292899 -0.045105293735941604 -0.25491877762479287
-0.064680978000080824 0.027492892398854878 -0.0057303521402863357
0.045128757250323628 -0.04275569888437239 -0.15178777688823711
0.055719577114029931 0.0017546414617440049 -0.16267561799679656
0.065101056626775053 -0.077623414262343635 -0.20767115237824416
0.045959361439661214 -0.014107318343714259 -0.15155775646878469
0.063316354281468465 -0.01968251949174437 -0.21036080786186806
0.030600326428808361 -0.0016564482545836576 -0.11450931487366295
0.045956666824694833 0.0057511644749414182 -0.14949406506607929
0.053032659733235794 -0.018212407043506892 -0.14176653397541705
0.045712769150996306 0.018066027762594958 -0.14607013795302301
0.039865924716441625 -0.025147138671236965 -0.1583378380494378
0.055793568288921055 -0.0330694688501047 -0.19115125099935124
0.054838707713034625 -0.018907633715293255 -0.19304305805425731
0.041284472485705707 -0.082952904734811081 -0.15649941881167884
0.070633330953727688 -0.066909763851589366 -0.20096831210935609
0.055196763105508848 -0.050591659793234545 -0.19267950917906643
0.061344940434986187 -0.03574620927039545 -0.21138106034875587
-0.083989765845361899 -0.013390762233715324 0.27819694583885418
0.057703098332190721 -0.042904652478948611 -0.19067115358287817
0.063727091096557512 -0.0087996866153227105 -0.20809994394531778
-0.051797067702493885 -0.0033259591268304562 0.019458365499799745
0.040012699203378611 -0.038591154770887794 -0.13019547025313863
0.065694498277699701 -0.045872357279174353 -0.23053902051298938
0.054579220643620092 -0.033369586614550487 -0.24246947627645307
0.046330080670289098 -0.0070656430627268393 -0.25135687191579625
0.067684666290009313 0.0063460138591761792 -0.2297182979628806
0.089344877642314177 -0.072053975522945096 -0.27178997009971079
-0.16751884378309065 -0.043437554764179105 0.011705021010046477
0.069637930141015117 -0.065055982348517158 -0.22658867607006569
-0.084930313541586977 -0.031284350145345918 0.29595588189564903
-0.088897186695267832 0.047435526471147411 0.27329075419112153
-0.067249622197884371 -0.069355621712599402 0.19126920986742657
-0.14122034914560627 -0.06691353976058953 -0.015502604666417053
-0.14280659445198532 -0.045625990553629071 -0.0086221827053156626
-0.12727346835161446 -0.03018770398643782 0.01856537982970748
0.053304385117426113 -0.072842608595428363 -0.1695490602125512
0.052936929376038416 -0.022816863560779506 -0.17112435889347682
-0.042530396025407861 0.0027651519855195076 0.1751768065038376
-0.12831005230178696 -0.057550659706174873 0.02136055925884036
-0.047583208031689826 -0.012226363596318299 0.14509858578589555
-0.16298289331239205 -0.053092219154356232 0.02187100238534849
-0.050357947354684761 -0.070594628892147224 -0.081113082252958185
-0.059081693307452561 0.037986992351846605 0.19854829285801315
-0.039761798539253858 -0.051841465839977459 -0.072336731826903172
-0.081496193550003176 -0.08006237196271207 0.014917904610665646
-0.12826163578875227 -0.049148465431778553 0.0062336686239353933
-0.066828445458523955 -0.0088817773484506073 0.20192104951944448
-0.060619801771692787 -0.014837296520682858 0.18267358675792561
-0.070091302526381127 0.021269150324992263 0.1963879670773844
-0.054570435344810896 -0.042347169703780975 0.18609438169186632
-0.093316903732304141 -0.00069570091824862291 0.0062888472167951072
-0.062295051206396869 -0.034706853928508259 0.20491141079925915
-0.080092557653633503 0.0067206821886522999 0.23896122118563307
-0.095412106615516218 -0.086815708250463017 0.05797128960446065
-0.098836775479465691 -0.092186879444072389 -0.048718573919891081
-0.14845104353557087 0.0023501508311576692 0.16339181191257549
-0.08367592803180271 0.030317287188633527 0.25798932674893549
-0.08088258837892158 -0.0038510728002376792 0.2614905485017831
-0.04990448413577641 -0.029434463498745279 0.16618272931968125
-0.061348763342507773 0.0243231927416564 0.18010843394520315
-0.14743845138146697 -0.023559947698280289 0.16800726658127818
-0.067943455493087099 -0.10282635347799464 -0.036589387952273761
-0.073976222831879185 0.038787146693305442 0.021654143184184831
-0.07643810580028626 -0.037959886230186909 0.26404416244557166
-0.078730216797362543 -0.019490257245738093 0.26391424227310217
-0.070314816031795693 -0.023441646239414096 0.2235808199228739
-0.067485313182675921 -0.043304573170946971 0.22492639823558255
-0.073980828709256194 -0.022949960955723662 0.24469539077585106
-0.07384097491194197 0.013272194467218609 0.21796411174168673
0.080304761766096092 -0.096997296558228682 -0.073172903352779928
-0.099470606439839931 0.033364043181510178 0.049896485266801488
-0.15461814304049859 -0.080537749978060832 -0.0070199157042731804
-0.075062634166043446 0.030560950531960878 0.23970523589168818
-0.074288341087636642 -0.056055204255640666 0.02324950406103549
-0.094874442816545543 -0.0065428029058503786 0.014971663522008079
-0.079565862043756735 0.01978542556278676 0.2376740382074177
-0.070742990879680917 -0.040362046209964211 0.24559852961708251
-0.089937287259761772 0.032237014021545961 0.27394107883936247
-0.14805974582891246 -0.076128064672495416 0.022085733067440199
-0.057678799710864877 0.029846842072055828 -0.048424442156951686
-0.10172100147477084 -0.064084715934622533 0.021577059058410383
-0.086106699972320594 0.03133242524047633 -0.052212389546215932
-0.09573587135644461 -0.024156936462474382 0.055792731359773223
-0.13212483797436128 -0.0478673369036395 0.018992949517516639
-0.038324589044947968 -0.094977825816152911 -0.063596057808117737
-0.037720330049508477 0.018831051086472816 0.074809936182593725
-0.089980765645371122 -0.0054499041170306484 0.054995797688914237
-0.081652168460737126 -0.04437478675079444 0.059178009525424076
-0.083483941074591658 -0.07335712394093348 0.059418651501350138
-0.073636019265389124 0.0089022622355815692 -0.045072306937207124
-0.089161738392597695 -0.077936017273278077 0.010007356123817356
-0.074009042262758784 -0.099352941080116497 -0.0048072655257185145
-0.084250898420220141 -0.053108803460198521 0.057648713927193979
-0.14038962881007944 -0.065731881932844863 0.0038216606734506843
-0.080514867593063907 0.031034550065713547 0.0068269790565787082
-0.098161835062330574 0.023369533557222783 0.054216495979857421
-0.09832532163532999 -0.0080813821147852592 0.040774752713680758
-0.072437562744192899 -0.096963519165376683 0.067026607700792676
-0.14128155870637141 -0.086266776208765023 -0.0074060103714835897
-0.0924802160384217 -0.088260469435031491 0.0432122207217445
0.082845037995237875 0.069049907468841029 -0.28278402542348763
-0.14379496395257182 -0.084822837197016915 0.020922057359870825
-0.081172700978944273 0.039447770908530806 0.27523959094443762
-0.044286804803420059 -0.0085936879727510872 0.12338029882338074
-0.034969486891015672 -0.0084584306705997401 0.10357187112120972
-0.083626686875896014 -0.092478674529332117 0.065393023019170743
-0.030912400106608826 -0.038054753096152756 0.1067528144883039
0.085075430354550646 0.054275704831754146 -0.28108511480848486
-0.048810920374635497 -0.0064004550177797414 0.066575256140463446
-0.032770123320677275 0.019824493656824444 0.098666322755653846
-0.03088870557828758 -0.039732568727460095 0.081150633128567004
-0.034802512285209676 -0.012291182867245481 0.079260437324468497
0.01256755166964304 -0.075947091993678509 -0.013096089239275844
-0.03511690036548834 -0.051190924607041804 0.12696157335221556
-0.044223323201578256 0.017851969310065257 0.12039200401578985
-0.090935302539784171 -0.11094997294790476 0.054859601766411394
-0.045517904647496644 -0.057654380521120097 0.1664236186691215
-0.03901079097332151 -0.030754874675106139 0.12621306303543947
-0.027281969083153113 -0.061699741173513664 0.10701763760849502
-0.031375874700807174 -0.050418096687444132 0.098943680699609043
-0.034679270012928816 -0.0099072265004877414 0.094124381740880392
-0.093098610787577932 -0.034140341410363012 0.037968727695485184
-0.083550822616388049 0.0013643302561732339 0.27426889280303313
-0.056423812166908498 -0.057414010698561141 0.20576766928348819
-0.035254589739521579 0.026971366171616426 0.09379859250275413
-0.039360434407422429 -0.061347418153560568 0.14653202612736851
-0.024956540801544521 -0.078876109765346356 0.10609456594420939
-0.081117635236965926 -0.046718192291350664 0.2901125725191418
-0.043018984217515675 -0.034495613996846849 0.146872657917342
-0.069460926706706408 -0.046865549181867187 0.061703545443763753
-0.071945742056187381 -0.061333141694623679 0.26262565050115699
-0.059300238108823532 -0.066452443357327196 0.22598205140524558
-0.066820175001045173 -0.05910265337351335 0.24446440335372963
-0.073349498940246879 -0.075605028498884369 0.028392056190855972
-0.07954219218465465 0.031620497248054963 0.033929656857861534
-0.059176015381395448 0.033607204926069584 0.21761770913906894
-0.076259992297131554 -0.060170258967763311 0.27361940853191685
-0.041619137413666393 -0.08134096219268748 0.07217296964919466
-0.045487061833145034 0.0067087867685683379 0.094512002759953431
-0.025937875152231091 -0.065864850866209745 0.082663030040418681
-0.052804473886064907 0.0099283678587042297 0.071731532891737046
-0.049643940424804849 -0.040247939414087865 0.16392583757976173
-0.051782327770950522 -0.074217304060557363 0.13178395553958053
-0.041352003625892232 -0.04304139147733281 0.063375901309088101
-0.088583162894931011 0.01487092077020355 0.20420856446655419
-0.042024954807492958 0.0055581668270871468 0.15305831657289937
-0.063369765714542864 0.02424917239472742 0.065063091516073729
-0.0767274129770283 -0.066455448145533683 0.29344173162142351
-0.12276548182335978 -0.084066725859403182 0.0090332612155413911
-0.006222521648140595 0.014678382007120469 0.066714786882377794
-0.018242140187542007 0.048941173371940767 0.21528588987730424
-0.062522301484422838 -0.058957819133575347 0.069740054242961355
0.070390933860476623 0.094916207392584745 -0.27609943215854188
-0.040159286955845828 -0.073401109481409363 0.27284233428850019
-0.082214475691679695 0.028516949627448131 0.27435645771268669
-0.071074095317335287 -0.083751126258835587 0.20575886683698438
-0.02500649591070005 -0.089347242670873003 0.085314415788146677
-0.051996919088916953 0.027387875667136179 0.21778305524861935
-0.068332974720691164 -0.081077958658279423 0.2783874733675048
-0.073444049917913035 -0.076674174265671427 0.27242399423711916
-0.049519384698705614 0.025980575560706286 0.19815062145619008
-0.03176769421372367 -0.096233987995216319 0.064492209304708989
-0.02906630605429451 0.0069522593105686009 0.071838843796364418
-0.031392358632364489 0.0066354781126125671 0.030165599667028871
-0.082511074176943922 0.0095217197314598611 0.28485957494608261
-0.091696233905194685 0.0010302923149984281 0.047296922843865198
-0.044440749783764728 -0.087234417873110023 0.18536087608921231
-0.015057104720086326 0.038852282059343247 0.11148861412741275
-0.07492821415876337 -0.082925430339707534 0.059660659937444342
-0.080399247608749697 -0.034186658888589773 0.27396981304146117
-0.10160843983103592 0.01036106712171083 0.043256951514102429
-0.042974645226331765 -0.059796937024607956 0.070007273995090019
-0.047891085588011223 0.096615139728439714 0.23858250292184716
-0.0077550003611540292 -0.079465730111512894 0.2231960756324958
-0.014373851979013169 0.031429549060461734 0.1307350334336296
-0.025562419851796081 -0.00060479010498150246 0.12793680050756159
-0.072783804276784297 -0.045002233351712842 0.28314677886740935
-0.071649804009586981 -0.085720255533725115 0.27327139458678656
-0.024085714629428035 0.0033958765244030235 0.16116508012802516
0.0015062348479763592 -0.083668013744590458 0.19037615185441251
-0.085764879939789207 -0.0092877701853293863 0.29283842797738918
-0.081299481122791381 -0.107720809372381 -0.039952621475846752
-0.09107268459591232 -0.05226153882963553 0.038323281661540101
-0.033582956812821668 -0.08828116790496604 0.12249882471882968
0.002297264016788749 -0.076823416487008148 0.17190316408949244
0.042368312358379269 -0.0051043863425789 0.060280730118949404
0.051340145081789225 -0.051667445793913462 0.065174545994758387
0.072928935703824554 0.033205933878822702 -0.02006958760586209
0.039261339125594222 0.011026321235798343 0.062143428013234608
0.072670768829159779 0.047152287744648504 -0.022558182182213869
0.039162911939907737 0.043817364750983329 0.037408296395023979
0.02319158013069883 0.007280456841190084 0.07193247735568202
0.02802370062226436 0.045195424577500781 0.045877417945358163
0.086595660865303459 -0.065682449753446823 -0.04711090860354715
0.052013624547333076 -0.075284623453250418 0.062943877187968594
0.046889255616516877 -0.030097773920784218 0.056692604205597429
-0.069066975874421774 -0.097569873841239788 0.2616099235580881
-0.021783373842109901 -0.034802308480386838 0.089227099248584837
-0.012875742286841329 -0.076929957240934974 0.10512303598467637
-0.018405506831878291 -0.06566304950914853 0.089304699121761935
-0.056219590225919665 0.013243133260814869 0.18823139659151419
-0.025088861011914276 -0.015922618070547862 0.093755771320492426
0.048176334260048505 -0.054081600506136286 0.056889525543367965
-0.044883228785568906 -0.092117487526205757 0.18232594328560353
0.052414225785606817 -0.00045140808295577277 0.052644175039442041
0.096648903078223783 -0.033856648175151015 -0.29210233455976825
-0.077109136484815294 -0.10601791396214254 0.13310643389715807
-0.072353250686181078 -0.10210696167017384 0.27066566505815837
-0.011992318365697847 0.0077451113942950418 0.0063030847754503338
0.087873886497518927 0.034369269874804972 -0.29166747064748227
-0.056512166932429872 0.012062127775290943 0.17993432268802356
0.090894044586918507 -0.0047557503574036626 -0.29684281396311291
-0.040307541491604364 -0.096512114574423422 0.16773767357244063
-0.07653375788509173 -0.034321068166256026 0.2536649478733945
-0.10136099587955985 0.013799027384280418 0.21752061785144872
-0.07936400729846084 -0.055801781512698025 0.26622754798602016
-0.10809828606626364 0.0095219991731421098 0.22375901522235547
0.093610141254104454 -0.046765099696989915 -0.30094979273393752
-0.084797954278540075 -0.016383125381191792 0.2700936006369421
0.074790827014575206 0.12451439681317891 -0.28419153486040782
-0.069900303743335029 -0.076206953162702554 0.2620660355044237
-0.070282748104956258 -0.063385355333575491 0.2642857035923325
-0.057304265171941045 0.001469216088494664 0.22800630711926659
0.052272970410236312 0.048527891164043324 -0.20320463321405094
-0.068489711458172273 -0.033804032711065815 0.2482139791049105
0.10058161043684158 -0.053526258196093274 -0.28463890814381249
-0.116871548404402 0.0081069782399083457 0.06778597743401038
0.048570156042470579 -0.04910215854107549 0.033675897496672227
-0.14559047807238942 -0.10677203021510447 0.096000026061477714
0.087961044553939299 0.014987519893921084 -0.29391271406441338
-0.077377920036159259 -0.1076243313911632 0.24835661069749559
-0.062984283338078484 -0.091420713072937074 0.24293058199630713
0.091339530946390954 0.010835989692622273 -0.28916312652695769
0.040294068151220899 0.031517527104050092 0.077433569504923791
-0.054399707293745596 -0.087636473245823424 0.20260322591901395
-0.068692363435292988 -0.097817344842066584 0.23397338935177381
-0.058063272422238729 -0.088863557758525669 0.22273992941581522
0.055037628542407631 -0.085592342239238534 0.0546824279672962
0.049227607149712256 -0.10361944907891314 0.063598790863294771
-0.096792817918505872 -0.087333927673768658 0.14779009518147318
0.044959525662518818 -0.011763934847732662 0.052509062602167846
-0.048918683636432328 -0.061249875552339038 0.18610170228731179
-0.042618867279176124 -0.024762346097732167 0.20530545518811275
-0.040846135577642974 -0.041513479499271963 0.14831809831924356
-0.084841626202380421 0.0045722163156537831 0.26643859878469361
0.021582628548576163 0.034134554304292922 0.073681275592525255
-0.042624256604135276 -0.078566896710070735 0.16464092920584597
0.07139916530273277 0.15214920096031481 -0.28416267017101088
0.02464966631719492 -0.017531329953006096 0.069776819448092359
-0.06335341121666814 -0.065397798901870904 0.24601046275150779
-0.03131745962068324 -0.068424766210873761 0.12744659049460794
0.055215145122571613 0.011841684589080852 0.012379825646759076
0.035330556833513188 0.030343381480961187 -0.12495273887390898
0.086677731601914901 0.060426050209645366 -0.28928817603489737
0.043741308287654344 0.033730317876213722 -0.14454705770424614
0.052909501447020897 -0.0065436762171516292 0.011902191384771499
0.064402147841113408 -0.025070821790248082 0.022942772930599112
0.046943465254103429 -0.056799464910240016 -0.10912770922072154
0.068991753309910892 0.035038231262504958 -0.22328778027158025
0.07826024224031658 0.045845607709230567 -0.26289811585288775
0.087600880234812162 0.03532118235306677 -0.28153182924874476
0.076517628140760338 0.041032522099834809 -0.26418421275699405
0.035462478340181888 0.018287208637387028 0.052903862902281357
0.057213237113533905 0.035974993572712097 -0.18269727093068877
0.082971894726566686 0.036477490615609641 -0.23672658755356182
0.092175983457827904 -0.079518488186568037 -0.065700249480115658
0.056510470777551565 -0.079931023763884862 0.0070136342291011889
-0.059043493743165969 -0.0017966083242548969 0.20841481007921475
0.06602737578631869 -0.029767770818483509 -0.018581254857295344
0.073383350396789115 -0.050018391231068625 -0.056092295173024623
-0.070620087654604674 -0.0068554648161931533 0.24832501574219595
0.053458543543816787 -0.071175618987635497 0.027010581969820986
-0.049401590675539044 -0.013625542872463202 0.18808311421120272
-0.039588754860645753 -0.085413153152208113 0.1453338086176767
0.020156885366366072 -0.042521263934520603 -0.019296399337647277
-0.09112124951865358 0.066460811527042321 0.28791602224814644
-0.08127549807619848 0.071497214732996028 0.27779196550627605
0.067264695212292433 0.0010425500722107044 -0.021215489704150405
0.074335076966221686 -0.083958029939242104 -0.056638830747386196
0.069871488673650034 -0.042767540177804139 -0.020335083626715437
0.074636731410350585 -0.022182925092759681 -0.055366166335752261
0.034102399274043044 0.033281381616098504 -0.10463079102067767
0.041711776003151832 0.013049955225811597 -0.12766320795712185
0.049344525372952121 0.048150026056773362 -0.26160092081126329
0.066391398860574088 -0.021680041241168797 -0.070713933956304501
0.095643265865942712 0.05467453503510309 -0.29092121540282867
0.083196296681657164 0.032892994258463919 -0.24618803456208513
0.071115025224592621 -0.060168034680795048 -0.28584135111015757
0.069244344628147547 0.00022146500563075536 -0.066740759082047268
0.016912669346099432 0.059426645210714973 -0.24543636318019169
0.086744095466134569 -0.058424202476698807 -0.29621564410560841
0.066900487025915015 -0.077577576182160948 -0.072083315648015123
0.097534332314204886 -0.057149705306345014 -0.29564870768404289
0.069274858869102299 -0.047187046077105589 -0.069535407833276081
0.024356035074499689 0.045730647388147423 -0.23066496509598886
0.018004798973617082 0.055559234363659671 -0.21520196447299464
0.074337761419301499 0.0034824450218091671 -0.053752737928415444
-0.046529356774250158 0.060158317830475969 -0.198292537037525
0.0039882481160377617 0.053410577765209827 -0.19094028073054323
0.083065119955032948 -0.024122209804837504 -0.28825532751753835
0.07745609720404284 0.034408464615770719 -0.20918032347115889
0.034130773222039307 -0.00099842498982698658 -0.057329942554956284
0.066833350202897684 0.016790235778316401 -0.061554856805989135
0.095371535083955905 -0.060793706729072881 -0.29841020538980462
0.043957485465486369 -0.02444706626398541 -0.067112040655787339
0.073797511494548829 0.037802890111622391 -0.064321305597409686
0.076720451079206956 0.024134145291641672 -0.057509356004609977
0.027877761618779261 -0.043400825744605416 -0.063548540539176412
0.072980864214507918 -0.07298781256718849 -0.055437041975149752
0.02519295413943877 -0.091012499689869145 -0.085725012885483939
-0.1466979286623096 -0.053421348546990065 -0.030373701498935333
-0.14958421124609961 -0.034386567400185392 -0.023015697569834001
0.03632386394809773 -0.093474091985243549 -0.020048101025763307
-0.069296239135794607 -0.082179184152659485 -0.079629103114051344
-0.00066203464448538686 -0.054362493656853909 -0.11996873095817993
-0.0078997734958750621 -0.044164998262046271 -0.071629824677762993
0.06700410226168084 0.081423357865560209 -0.041273965696044919
0.090115230645073652 -0.083166737712562777 -0.27624499149543319
-0.028931518753043391 -0.088574448565118924 -0.04824788019041891
0.096630751747701679 -0.098083819561211927 -0.044125938404034511
0.0001214782662814419 -0.044027064622227663 -0.068387672678863767
0.071744282649062976 -0.044638042929900021 -0.25910079955486764
0.024303404003731023 -0.080020910226092659 -0.1037902984170171
0.074159001219689588 -0.07656282046276032 -0.2534861474676246
0.070190958956712152 -0.04940028005619574 -0.23102595394395795
0.068193973299337199 -0.03727520968143129 -0.23402214304893287
0.10698102605276232 0.026568565967404239 -0.13789277500918412
0.066623226696486126 -9.5772808629658747e-05 -0.23669565521888861
0.06825811253805146 0.014559588344400506 -0.23319595899326143
0.089826208320428882 -0.053999617347545374 -0.1030495876029657
0.0033230703854787761 0.018015864911405433 -0.062658650697223012
0.060086440229198852 -0.044975218795119017 -0.21796182530243557
0.042802865533087757 -0.078445480418581903 -0.13054267143076587
-0.16592696568497597 -0.035657310080024054 0.00035705905707412723
-0.081342306832850653 0.030500147523662108 -0.061887218814001964
0.056183773254447338 -0.098770652591649397 -0.086608368113621881
-0.080848555962037452 0.015630492473759711 -0.03086254166905952
-0.061068671276248203 -0.023245708945982158 -0.048365827599311732
-0.078808203882675912 -0.050985643151977018 0.29631096349103397
-0.12982071340825266 -0.067078035707277273 0.0074635229421931371
0.013260482063499401 -0.10638873898960294 -0.097655973102851054
-0.041280331275681162 -0.072042418279681802 0.078242494766763607
-0.081620445114510734 0.010199358701204845 0.28967950070748072
-0.086355169267400556 -0.027579441506868946 0.28331786679874105
-0.071422041765229691 -0.0036468688165331325 0.22292774296813386
-0.073163195372184756 -0.067484789248069749 0.29680561972166575
-0.088518085904583099 0.025366449137223624 0.28921563749652612
-0.056946337198815054 0.021138080894848081 0.16147491256580271
-0.033611514628568477 0.083273489022122102 -0.063924915881552788
-0.073821749537230349 -0.077316658091670348 0.29663046302720258
-0.0075108093600769503 -0.085363055469202032 0.076707940484116596
-0.023687929696011422 0.03437303725906421 0.1946729262687395
-0.040479213727393645 0.034859879825338322 0.24135490648391358
-0.045264755486379697 -0.024528181323120211 0.066460657715110769
0.010614552458891027 0.047387751517372491 0.14196331716631347
-0.081901753078628459 -0.029526124776657121 0.29955249994300892
-0.020725960150551483 0.033138037871168383 0.17888509818724715
-0.091337498160733444 -0.032737935215393546 0.066463684122888722
-0.063654607335539126 -0.079961205341742392 0.28229679174408778
-0.13193821239252612 -0.087202288680667331 -0.017579387311372142
-0.08209724551829628 -0.012136678689306816 0.29677830795485788
0.041041515487832608 0.02479552265548542 0.070493511412836232
0.038846653355859385 0.038046560459155471 0.075325891722462429
0.056860887355566436 -0.081202338333223142 0.071887791726503503
0.028841772744849538 -0.073955738898741741 0.048767727587271978
-0.011740114006218046 -0.056884740036869795 0.088109987564006356
-0.070935859364261875 -0.049209007357130644 0.2656103391702006
-0.14323713450212155 -0.10734017955333493 0.098877720365658256
-0.064254804502061127 -0.0019830493257102268 0.26282633292553637
0.053831768072284923 -0.096605028848290891 0.096878932237594306
-0.06702848939140621 0.030292363514273592 0.050740077620367689
0.0087064438697844939 -0.06136316198549175 0.014691503205499832
0.06421850617048197 -0.08395538811361189 0.0091423236535250387
0.065835711683834952 -0.01112128111929237 -0.0044833909253743261
0.051373104017704493 0.053202388017545559 -0.27736136924830185
0.042920485487169716 0.05045759995348504 -0.18780965470963337
0.052790969179701712 0.042513875387905631 -0.034412680643342082
-0.049101886328760842 -0.087895307110427118 -0.13254868289658131
