ply
format ascii 1.0
element vertex 167
property double x
property double y
property double z
end_header
-0.62782858134372388 0.1119740450450977 0.13576280981913941
-0.64294003058663274 0.096763303217616448 0.21468402211066748
-0.64628475881615388 0.075994454062861955 0.2308862549151092
-0.64266407112655133 0.061848525393031581 0.20812024292714021
-0.65171941423915214 0.063808829899383274 0.26961255622657371
-0.069381228324576702 -0.006294045766620621 0.02845193259729124
-0.15369519625422565 -0.064308249430075987 -0.21211039132995754
-0.65258457622299881 0.068373382274349082 0.28282487735915546
-0.16719846406416075 -0.12070256274105316 -0.41813667414879807
-0.64757841897206758 0.25280200159612143 0.24957513157569
-0.1585171323673408 -0.08280238342611515 -0.078761143632165714
-0.65158420564615549 0.25503095631279554 0.39660838871261511
-0.098033050198223365 -0.058112503352893932 0.083671042945822893
0.0023390519983248789 -0.027082946443797582 -0.13772908315404281
-0.023559126749365618 0.083730555223630765 -0.20326105633978872
-0.0046686852999585915 0.0038514668227774074 -0.15429874578220348
-0.0014859605058144345 0.025732836109569959 -0.14399820757661086
-0.050166658242948386 -0.14411908212845237 -0.14798054131765376
-0.18437622166057052 -0.11358057967882255 -0.18888390040415168
-0.64772693581663643 0.047606088743944321 0.2584115511044992
-0.084452524355782405 -0.14042934582201694 0.10711477520328938
-0.31137881518508098 -0.071449179889780057 -0.17559127412071862
0.43003475958830223 0.003417005692217168 -0.12874948818567122
-0.052584295244256646 -0.11144517891284411 -0.099996387012419002
-0.64878375313619718 0.068808907753323448 0.2529771875003155
-0.21920473554067971 -0.099143580838672904 -0.034236602807471074
-0.63014646383528994 0.027413789375976449 0.23009733155281106
-0.64526830511413413 0.26504194906900491 0.34303971275234518
-0.64735886281481869 0.011483570259231799 0.24173791069797151
-0.13147841018832843 -0.11148919083046555 -0.14416486563624675
-0.25244283037491466 -0.1106966111203589 0.0019428750181350494
-0.63122554520846452 -0.089828588803613621 0.19514248960908748
-0.64363316918020752 0.22867514021585039 0.33028567547747467
-0.048661686248345055 0.15720758046646266 -0.069136568581044236
-0.062221750568811407 -0.13000784233758567 0.20018584128382674
-0.087938121471037231 0.014518320499366149 -0.13383302566433239
-0.63677820987757006 0.096963248919464465 0.29401795520230162
-0.11621963502249216 -0.10121470009980274 -0.10492897146954944
-0.32544687624486929 -0.053793166438770919 -0.21423677201544331
-0.63095921138588396 -0.058549186378847616 0.22661233050178892
-0.62999936130079315 0.059137724653734867 0.23245007199416265
-0.64650533978676916 0.18759110125473896 0.25242231269168908
-0.09985918583068211 0.10895874117924409 -0.19465293560952174
-0.64722415104257858 -0.07715382640180013 0.23296651712479885
-0.18354769838015095 -0.1139020641625738 -0.25127109876171855
-0.64755243840414445 -0.06426391819408199 0.23157308473195798
-0.031683739390868493 -0.02514985851047959 -0.11928593510784745
0.072888487242874625 -0.13843490191289998 -0.071052127198526327
-0.27573766098657532 0.096438481620056429 0.043344413599058579
0.4529179471631764 0.089898231512181445 -0.088435029635438867
-0.6399853549487704 -0.091546382449353897 0.27669833379057462
-0.63378465330368294 -0.038170047456748755 0.26779219605754562
-0.63936231632803897 0.022995289556134012 0.28975231241938881
-0.64792275219048068 -0.018945020853444506 0.21655792751574818
-0.21305768512221496 -0.11066452155791756 -0.12203671771816954
-0.037527879639349462 -0.10248010943783606 -0.13692372931242133
-0.64860889508528641 -0.069703774549776609 0.22826277306174705
-0.6478732710800964 0.057389426069064539 0.25043251152878537
-0.23570764311938755 -0.037900912853001699 -0.18294746363895356
-0.029344941369692918 -0.012277133241459487 -0.11229337667202514
-0.24081863550327168 -0.020304230477125158 -0.18567751221334874
-0.027321628535046574 0.042333625255974158 -0.10282468939677075
-0.026741456062677027 0.071253602460125631 -0.099598625565437041
0.44710818230336596 0.1044529276127124 -0.093655170374355501
-0.032296750115919676 -0.071440433851951715 -0.12471732180027233
0.44224827337948497 -0.0046310718999533242 -0.10957366602842389
0.43932507378421132 -0.058861122372970573 -0.11856023308177722
0.45135188868134068 0.056857728927430552 -0.093464755111687031
-0.29479061883646307 -0.12574677525738825 -0.052791942033937167
0.44527722765446537 0.02882009103139152 -0.10141933475909311
-0.23466224671342317 -0.057557213651693397 -0.17172471382515797
0.45047048061819306 -0.083612828037448808 -0.10614173734135328
-0.64571798817725834 -0.10477380888093632 0.23805772869458888
-0.16505214959783165 -0.11227493050936631 -0.15890204313542119
0.43114624386767725 0.056148145001862167 -0.085187052382056386
0.45015204420046773 0.076677549972357859 -0.092256530628003819
0.43017846553059169 0.030527953681022683 -0.089766191285316321
0.43302158336093971 0.085563173857577876 -0.079898394271353188
-0.033271629213614658 -0.045528551377555286 -0.1231348046896332
0.4224988967885614 -0.043700542117930855 -0.10667908842400621
0.42507478428882495 -0.016876786807789458 -0.10065026188320098
0.42735166585691425 0.0069559773859106345 -0.095291693584638737
-0.031519078712980694 0.024457488337898993 -0.11179351276473579
0.43161407604194546 0.10681019369042265 -0.079960116010231841
-0.025274131270981427 0.13212034313841686 -0.08905541803238276
0.42194523754473889 -0.065503447394799907 -0.1098102745971586
-0.034397623227202495 0.15400843866765895 -0.037938395429768686
-0.25655643665125316 0.1235427477976612 0.059857285194249675
-0.078406301132568926 0.1149405261614569 -0.14016855277165391
0.017317969290773047 0.22838872437102009 0.016296889955456632
-0.026843230272425533 0.10473927842919467 -0.09485092375061735
0.47260932392812927 0.24607711219140818 -0.049015683045529841
0.39081882130892315 0.083222691236668631 -0.075271403671284515
0.38331008298739722 -0.016671571925909835 -0.095417778783111667
0.38734715442524476 0.00515739356274159 -0.08828728868256415
0.39060455292695512 0.031945432251983978 -0.081397950959475218
-0.63026544914234106 -0.019810117366209499 0.31615230645971026
-0.06191390600041901 -0.071533735768823034 -0.13225144690432303
0.39494727994579421 0.055406895311373681 -0.073988546083570347
0.37807543832299401 -0.045161374479573642 -0.1045079420434928
0.35088559855346568 0.050114165100995069 -0.06778090532550668
0.35389598170628683 0.078890521687458387 -0.061032815760763151
0.46348109247812586 0.26233167475288854 -0.031170544144198235
0.34670446670728933 -0.014709376227923463 -0.081121988598869696
0.34920189361638371 0.0061440427456976206 -0.075714964741211518
0.34942831293495041 0.029189184439218266 -0.071826646934311969
0.31428969604182877 0.029859921141204629 -0.056618485866217906
-0.28465964281137668 -0.15695941963518195 -0.046957657339728676
0.44416967787789047 -0.027691745537888633 -0.10979524113747717
0.27540649036881426 0.07274375112542962 -0.039214951888590081
0.38120888512882978 -0.063997567722258994 -0.10336753795621416
-0.050111595554229907 -0.0489543257910105 -0.11278883459969385
0.26671793954543399 -0.052031455871558607 -0.066238917236919576
-0.051940949273852059 -0.023570424975370711 -0.11309788488694468
0.44691128422760507 0.1300460174722734 -0.081901457902400679
0.53527033613253527 0.070563979600642951 -0.16774900951398081
0.35822584374174876 0.099115244652970419 -0.05360298201990811
-0.24427237553417755 0.14662084620800084 0.033154699233877878
0.34501754508886823 -0.046432742233703098 -0.086511305704569108
-0.2790940145920075 0.11985895801519761 -0.025845321641840516
0.5306437231310871 0.045057746649893447 -0.17459485914071754
0.53805956465894889 0.097374744008868197 -0.1624811560038823
0.31356423203620931 -0.066261698200962865 -0.070627657167404101
0.30833148695976176 -0.018703203123190796 -0.068386504429456027
-0.25742105393014114 -0.0017394608658204685 -0.18674484990643622
0.273736478611524 -0.022217061788129825 -0.05434599411046187
0.2738227877032075 -0.00040611105796560531 -0.051458568451517847
0.27330755611315455 0.024204360277439212 -0.048230636590027194
0.2783301794167431 0.048577977581181674 -0.039363815082175437
-0.28503511150434602 -0.1711529835076443 -0.048447106226226451
0.31977937834343695 0.0024572387407568869 -0.054145500375920259
-0.054141069206352588 0.043062710749073904 -0.10739851288200095
0.24124826063719246 -0.016408730987470879 -0.03555107116900727
0.32187296217514161 0.075787170709682078 -0.041878917869376267
0.25178352660487346 0.088700334423841148 -0.0080573964402468178
0.32748872833141685 0.09805429168101773 -0.033069096137272727
-0.074703363606516859 0.13201731861066021 -0.052796064023879305
0.31105696536029509 -0.045234003887741375 -0.070120644169186175
0.31914396999645522 0.050242235518363584 -0.048179454536786952
0.20020603822714006 -0.009659971671530496 -0.026315539546646505
0.19106166765634 -0.058267093662515507 -0.043203760330918384
-0.2704729369137196 -0.13032082117461946 -0.045439159708828877
-0.28431677953266016 -0.0029992542561872778 -0.0052223665659713167
0.24168390884197982 0.043809142901845656 -0.026476412844125028
0.34449540759454755 -0.065801535386540669 -0.089891042788373024
-0.27195204726022304 0.027649941786819492 -0.026217083792178023
0.45025829716516691 0.00097865224110921679 -0.10055456240780816
0.20097870198504647 0.020708150872863929 -0.020789990376820489
0.20385893132849819 0.042209787163459293 -0.014493101612419748
-0.26626217540786123 0.20150622830342796 0.0089139173453860812
-0.26406406121044779 0.18022681106458119 0.008907741311951347
-0.053162240927680911 -0.08963395810545062 -0.12225238340497706
-0.021962545572159511 0.002547431848133394 -0.10080894082594559
-0.23354088070778431 0.054121867174944126 -0.054476194540022123
-0.093988059741587443 0.067431331895486071 -0.012912228101858674
-0.089401353853907323 0.0841245019933968 -0.0458730508596773
-0.27213601208779092 0.088287661181481694 -0.016517607373602639
-0.25981456531969871 0.0072060897868923513 -0.16313857934217652
-0.27515195779914919 -0.10697079825987349 -0.049419953895689914
-0.27158962132243958 0.0049112935674955234 -0.027271720414284679
-0.26763809609789507 0.051060529820869303 -0.01437086685853088
-0.043146347985014578 0.079309321681331313 -0.08576562154964841
0.20078247967145463 0.068484647137699944 -0.013845568069594028
-0.216057718056513 0.0064154890174079986 -0.20578664540735009
-0.1120226905696497 0.042602327495161553 -0.082216662027787962
-0.29084465919395663 -0.11179864608988438 -0.035863245008554243
-0.1884035005543501 -0.021342754823433098 -0.17682315137620946
