ply
format ascii 1.0
element vertex 167
property double x
property double y
property double z
end_header
-0.32742495289086132 0.058396666722979225 0.070802975414440403
-0.3353058708730951 0.05046396570506962 0.1119619397950313
-0.33705021242670796 0.039632602402783296 0.12041172285741901
-0.33516195258727327 0.032255222388634319 0.10853879985872468
-0.33988449211503435 0.033277559742678008 0.14060825063480215
-0.036183675115688027 -0.0032824686544501531 0.014838242423407269
-0.080155067622734277 -0.033538016850189513 -0.11061974072641152
-0.34033569110504791 0.035658063578840278 0.14749873595669621
-0.087197287359016246 -0.062948760368172166 -0.21806649920602605
-0.33772488164087511 0.13184121577607588 0.13015833959646109
-0.08266980214039571 -0.043183071459602339 -0.041075485426608181
-0.3398139781745928 0.13300365949843856 0.20683907494688089
-0.05112616372800563 -0.030306813417075289 0.043636094483354725
0.0012198616200645744 -0.014124289220039964 -0.071828425629964818
-0.012286547945222787 0.043667131306679915 -0.10600463848613113
-0.0024348112045639663 0.0020086156961978108 -0.080469830571790357
-0.00077495762867730959 0.013420180127657109 -0.075097897313354922
-0.026162898918576791 -0.075160935769421552 -0.077174762681232772
-0.09615582578639606 -0.059234506130734561 -0.098506668905238015
-0.33780233609624949 0.024827511565247335 0.13476670616962963
-0.044043652408311616 -0.073236665718305644 0.055862461931549055
-0.1623901761130081 -0.037262152528054496 -0.091574302867786034
0.22427158476645589 0.0017820356719145333 -0.067145390249184006
-0.027423744163255413 -0.058120852633617305 -0.052150082490227373
-0.33835348711318924 0.035885198681754424 0.13193257867055436
-0.1143195807592047 -0.051705327298187179 -0.017855061707109723
-0.32863377419680317 0.014296830315972698 0.12000028380795409
-0.33652011183016101 0.13822458911043092 0.17890195688007129
-0.33761037878678352 0.0059889077415055392 0.12607107477141904
-0.068568576744215015 -0.058143805714254371 -0.075184812769176282
-0.1316539009202729 -0.057730459807496672 0.0010132475331469856
-0.32919653635557733 -0.046847375750759555 0.10177064626543317
-0.33566735628183886 0.11925858305500414 0.17225047560319948
-0.0253780264245906 0.08198684506868123 -0.036056080247628734
-0.032449866658151076 -0.067801646687890224 0.1044008533531374
-0.045861459856351337 0.0075715896772097589 -0.069796555023981494
-0.33209236018667698 0.050568241320984079 0.15333614618999908
-0.060610825395665133 -0.052785456726279469 -0.054722522295451721
-0.16972694663707114 -0.028054194266479138 -0.11172869007415083
-0.32905763802902288 -0.030534552203505028 0.11818278721913471
-0.32855705733194712 0.030841486488842901 0.1212272842202724
-0.33716524974112549 0.097832448722894871 0.13164320054494244
-0.052078529375568873 0.056824126453920924 -0.10151533422643316
-0.33754012394813765 -0.040237237879313111 0.12149662051300275
-0.095723734600805646 -0.059402166611756471 -0.13104281983914348
-0.33771133226373445 -0.033514897238741015 0.1207699181150233
-0.016523693227310808 -0.013116145844111029 -0.062209961196153699
0.038012779620044838 -0.072196523994288511 -0.037055081740594173
-0.14380261323167975 0.050294564853564268 0.02260496416136222
0.23620561713825375 0.046883695792964718 -0.046120607236950141
-0.33376494941733037 -0.04774323892145009 0.14430362299284702
-0.33053116155809065 -0.019906430452113467 0.139658897005006
-0.33344002252310462 0.011992495759772979 0.15111152958484997
-0.33790445818639708 -0.0098802009732962305 0.1129392183185214
-0.11111377306982578 -0.057713724469567081 -0.06364454842802203
-0.019571527305604949 -0.053445392583303442 -0.071408417762388904
-0.33826229520064599 -0.036351889315757051 0.11904352547397296
-0.33787865281416968 0.029929714392549239 0.13060548010438602
-0.12292617162984613 -0.019766071463096786 -0.095410700378248614
-0.015303964061324652 -0.006402766444012711 -0.058563204446826556
-0.12559165467768243 -0.010589055524087686 -0.096834474402597667
-0.014248766624868891 0.022077818160922563 -0.053625097808860156
-0.013946195270077108 0.037160155052001306 -0.051942642072715435
0.23317571050122385 0.054474256061593347 -0.048843013298594043
-0.016843390376717244 -0.037257591297315693 -0.065042536177198795
0.23064117241592375 -0.002415195076705577 -0.05714482185670617
0.22911666633541916 -0.030697232959392366 -0.061831493316927354
0.23538888683976697 0.029652423876117013 -0.048743707994150141
-0.15373910547145506 -0.065579416401699078 -0.027532036047934458
0.23222083164180893 0.0150302442874888 -0.052892177725719448
-0.12238097684396593 -0.030017218916826145 -0.089557815628683243
0.23492921519988069 -0.043605734263705065 -0.055355003549479913
-0.33675463039165132 -0.054641601953854119 0.12415178747725292
-0.086077942152522638 -0.05855358441021296 -0.082870540676121776
0.22485124567809264 0.029282361903302585 -0.044426723220228198
0.23476314434523865 0.039988850354267025 -0.048113595163343896
0.22434653024167392 0.015920928248392127 -0.046814834217774111
0.22582927210677423 0.044622877967022759 -0.041668584001642944
-0.017351808999446862 -0.02374403496903529 -0.06421722238009353
0.22034148410599191 -0.022790692188055874 -0.055635242707351512
0.22168486009824256 -0.0088015762418185619 -0.052491091095321595
0.22287229861621213 0.0036276790123461523 -0.049696492338820203
-0.016437819445354277 0.012755061182028521 -0.058302515588180191
0.2250952293579894 0.055703616682279938 -0.041700773102370782
-0.013180956532827753 0.068903357402801707 -0.046444151987347838
0.22005273992133217 -0.034161336095161469 -0.057268217878763225
-0.017939037022843499 0.080318429701985758 -0.019785619364063468
-0.13379922749708939 0.064429972734087196 0.031216751462565397
-0.040890428084259273 0.059943744967962426 -0.073100657013434919
0.0090316615835817609 0.11910921155888646 0.0084991486282966437
-0.013999272522089254 0.054623593644148601 -0.049466622201606497
0.24647505739823936 0.12833405369081077 -0.025562642716498926
0.20381970168044708 0.043402270249143893 -0.03925551740309554
0.19990374696883859 -0.00869455264488685 -0.049762248249584688
0.20200915912214512 0.0026896821751983737 -0.046043557424353974
0.20370795650516096 0.016660171201185816 -0.042450632306794446
-0.32869582737455522 -0.010331365818853095 0.16487964569461788
-0.032289319661249698 -0.037306250081964892 -0.068971730595184522
0.20597277405538778 0.028895785611300864 -0.038586481940702293
0.19717377682479975 -0.023552544995343837 -0.054502947169233013
0.18299374063308349 0.026135522712647501 -0.035349075197571536
0.18456371465351801 0.04114295862696591 -0.031829813772565135
0.24171450516900289 0.13681112775068141 -0.01625605181298528
0.18081319814354802 -0.0076712289972109609 -0.042306712508292245
0.18211565539439259 0.003204239128877932 -0.039486843224730214
0.18223373752209154 0.01522273375875713 -0.037459009015551763
0.16390825772909456 0.015572536140451858 -0.029527653914419253
-0.14845560222499121 -0.081857424314504129 -0.02448934183502598
0.23164322265076367 -0.014441789921069101 -0.057260377633871151
0.1436299012412712 0.037937296888222387 -0.020451368663812673
0.1988079309606165 -0.033375990229279215 -0.053908204008998761
-0.026134182643473312 -0.025530643701532914 -0.058821595500446834
0.1390986511061684 -0.027135427557511773 -0.034544898082564592
-0.027088226586783497 -0.012292440192290529 -0.058982771303446167
0.23307302428225254 0.067821555771433339 -0.04271322108017387
0.27915400763846232 0.036800503167731709 -0.087484407638863657
0.18682182286189358 0.051690549420045848 -0.027955009351619969
-0.12739284802968998 0.076465654939958563 0.017290827715312103
0.17993343534227518 -0.02421558828354816 -0.045117347372463014
-0.1455530176474705 0.062508803912174921 -0.01347884354502776
0.27674113796502187 0.023498501044081535 -0.091054652858880203
0.28060864517170142 0.050782844103123226 -0.084737118428664965
0.16352991398221453 -0.034556778803354199 -0.036833712271166205
0.16080093451065441 -0.0097540882710566556 -0.035664907040806472
-0.13425014241275415 -0.00090716305209900935 -0.097391112001239385
0.14275895726515014 -0.011586634673086283 -0.028342504769917457
0.14280396915393359 -0.00021179490385457171 -0.026836655500787076
0.14253526574648454 0.012623049920142335 -0.025153225550176316
0.14515466258096166 0.025334370708337817 -0.020529003747010936
-0.14865141653284633 -0.089259647023683567 -0.025266118722836833
0.16677123501684848 0.0012814983306620783 -0.028237943344174943
-0.028235632402096068 0.022458050584748611 -0.056010436711363409
0.12581571263460703 -0.008557475926108022 -0.018540582809751092
0.16786308016031398 0.039524500057387169 -0.021840679315925586
0.13131006103744297 0.046258968901942234 -0.0042020907111688958
0.17079181265801122 0.051137241579046422 -0.017246184016847046
-0.038959273337480366 0.068849628085357883 -0.027534185746757874
0.16222232509945134 -0.0235904226601308 -0.03656929502099697
0.16643985706710357 0.026202313954110022 -0.025126533102796528
0.10441138645629551 -0.0050378652126802309 -0.013724071430320943
0.099642417358149937 -0.030387435303923599 -0.022531610715751028
-0.14105695608455088 -0.067964871306865515 -0.02369741545569785
-0.14827679228193083 -0.0015641700819641279 -0.0027235668742290223
0.12604291174144636 0.022847329632756319 -0.013807970018906329
0.1796611303699297 -0.034316794845453073 -0.046879946732115527
-0.14182834122042307 0.014419988442717831 -0.013672724818002528
0.23481855735604279 0.00051038639122784563 -0.052441181936749827
0.10481434580228692 0.010799707954506459 -0.010842388865385407
0.10631644205135565 0.022013234160109807 -0.0075584375316787092
-0.13886096114475455 0.10508946115236395 0.0046487832086895249
-0.13771460135973737 0.093991826552705826 0.0046455622857871429
-0.027725154203817208 -0.046745872013798831 -0.063757022325263202
-0.011453899460800023 0.0013285358100177138 -0.052573845284756116
-0.1217961624177353 0.028225618165063616 -0.028410406854629647
-0.049016621650654901 0.035166765778635208 -0.006733980904339399
-0.04662456432191138 0.043872582294999185 -0.02392369822435143
-0.14192428249609912 0.046043751689865534 -0.0086142571027849734
-0.1354984056764181 0.0037581175485045179 -0.085079977629355749
-0.14349715750021147 -0.055787375123913727 -0.025773477915790915
-0.14163932896591375 0.0025613361875445099 -0.014222738558331428
-0.13957853084531147 0.026629070526541548 -0.0074946897034928227
-0.022501669048213886 0.04136137106045381 -0.044728458420045761
0.1047120120065772 0.035716090393361988 -0.0072207360538307491
-0.1126783492477392 0.0033458036982018493 -0.10732178285649108
-0.05842203632076131 0.022217951663317914 -0.042877606230791017
-0.15168120991134587 -0.058305192718204051 -0.018703387606704844
-0.098256130935377828 -0.011130666395701901 -0.092216751084277127
